<?xml version="1.0" standalone="no"?>
<!DOCTYPE svg PUBLIC "-//W3C//DTD SVG 20010904//EN"
 "http://www.w3.org/TR/2001/REC-SVG-20010904/DTD/svg10.dtd">
<svg version="1.0" xmlns="http://www.w3.org/2000/svg"
 width="308.7612359841165" height="304.915625" viewBox="0 0 577.000000 433.000000"
 preserveAspectRatio="xMidYMid meet">

<g transform="translate(0.000000,433.000000) scale(0.100000,-0.100000)"
fill="red" stroke="none">
<path d="M2773 3441 c-40 -16 -92 -40 -117 -55 l-46 -27 0 26 c0 35 -18 31
-61 -11 -31 -30 -46 -37 -83 -39 -55 -2 -110 -37 -132 -83 l-16 -34 -58 7 -59
7 -108 -100 c-135 -125 -137 -127 -163 -187 -15 -35 -51 -80 -120 -150 -115
-116 -140 -162 -169 -311 -42 -209 -42 -198 5 -299 40 -86 78 -220 68 -237 -3
-4 -12 -8 -21 -8 -32 0 -9 -96 60 -250 35 -80 77 -179 92 -220 16 -41 39 -84
51 -95 12 -11 30 -47 39 -80 25 -87 72 -148 125 -160 14 -3 48 -7 77 -9 28 -3
66 -13 83 -23 81 -46 97 -52 131 -53 32 0 194 -77 236 -112 7 -6 20 -8 28 -4
10 4 15 -1 15 -15 0 -18 4 -20 33 -15 86 15 207 18 277 6 41 -7 96 -12 122
-11 31 1 61 -5 87 -19 42 -21 87 -27 76 -11 -8 14 22 28 75 36 40 6 48 4 70
-20 l25 -27 5 34 c5 30 8 33 43 36 33 3 37 6 37 30 0 20 16 43 58 85 32 31 62
57 67 57 4 0 17 -7 27 -17 25 -22 23 -2 -3 31 -26 34 -15 49 36 50 19 1 35 6
35 12 0 15 23 24 61 24 25 0 30 5 35 29 3 16 24 51 47 77 78 95 155 226 197
336 l20 53 -60 -64 c-33 -36 -63 -62 -67 -58 -4 4 -13 -5 -20 -20 -7 -16 -11
-20 -8 -10 2 9 3 17 0 17 -2 0 -59 -42 -127 -94 -184 -139 -358 -256 -384
-256 -13 0 -26 4 -29 10 -4 6 -15 4 -30 -6 -23 -15 -25 -15 -31 0 -3 9 -12 16
-20 16 -17 0 -56 -21 -66 -35 -4 -5 -8 -6 -8 -1 0 5 -6 3 -14 -3 -9 -8 -16 -8
-20 -2 -8 13 -36 3 -36 -14 0 -28 -44 -50 -132 -66 -79 -14 -99 -14 -147 -2
-31 7 -123 22 -204 33 -119 15 -162 25 -214 50 -62 28 -65 31 -47 44 26 19 13
29 -21 16 -25 -10 -34 -4 -173 127 -81 76 -183 177 -228 224 -70 75 -86 99
-117 175 -25 63 -40 88 -51 86 -17 -3 -40 33 -31 48 3 6 13 10 21 10 10 0 13
6 10 18 -3 9 -10 54 -16 99 -9 72 -9 87 6 115 11 20 24 94 35 198 22 203 33
257 70 338 44 97 106 177 233 299 92 89 140 126 238 184 215 127 301 157 468
163 60 2 106 9 115 16 22 18 20 80 -2 80 -10 0 -29 9 -43 20 -33 26 -52 25
-137 -9z m-979 -1671 l7 -25 -20 24 c-12 12 -18 28 -15 33 8 13 20 -1 28 -32z
m47 -6 c20 -49 21 -58 2 -46 -15 9 -43 92 -31 92 5 0 18 -21 29 -46z"/>
<path d="M3212 3378 c-6 -6 -35 -12 -63 -13 -38 -2 -56 -7 -66 -20 -19 -26
-16 -39 12 -73 28 -33 78 -56 145 -67 59 -9 147 -61 353 -208 l169 -120 34 16
c32 16 34 16 34 -2 0 -10 9 -50 21 -87 17 -55 30 -76 68 -111 l46 -42 1 -71
c0 -64 4 -74 39 -125 21 -31 46 -60 57 -66 10 -5 18 -21 18 -35 0 -20 4 -24
19 -19 17 5 18 0 15 -67 l-3 -73 9 60 c6 33 16 82 24 109 16 54 14 70 -4 37
-6 -12 -14 -21 -19 -21 -4 0 -11 47 -14 105 -14 223 -14 224 -154 448 -138
223 -201 296 -304 358 -108 65 -223 99 -333 99 -57 0 -96 -4 -104 -12z"/>
<path d="M3348 2536 c-76 -34 -127 -117 -128 -209 0 -136 80 -217 215 -217 80
0 120 16 162 63 95 108 57 300 -71 358 -47 21 -136 24 -178 5z m120 -68 c32
-35 42 -72 42 -153 0 -96 -21 -145 -62 -145 -68 0 -111 109 -90 224 17 92 63
123 110 74z"/>
<path d="M2120 2525 c0 -8 11 -17 25 -21 l25 -6 0 -167 0 -168 -25 -11 c-51
-23 -26 -32 90 -32 93 0 115 3 115 14 0 8 -10 16 -22 18 -21 3 -23 9 -26 66
-3 57 -1 63 15 60 11 -2 34 -34 58 -80 l40 -78 78 0 c59 0 77 3 77 14 0 7 -8
16 -19 19 -10 2 -37 35 -59 73 l-42 69 24 14 c60 36 74 119 29 172 -43 51 -75
59 -238 59 -121 0 -145 -2 -145 -15z m280 -116 c0 -49 -29 -82 -68 -77 -26 3
-27 5 -30 75 l-3 72 33 3 c44 5 68 -22 68 -73z"/>
<path d="M2600 2515 c0 -8 11 -17 25 -21 l25 -6 0 -127 c0 -164 -6 -196 -36
-210 -47 -21 -25 -31 71 -31 76 0 95 3 95 14 0 8 -10 16 -22 18 -22 3 -23 8
-28 118 -3 63 -5 117 -3 119 1 2 6 -7 11 -20 5 -13 28 -76 51 -140 33 -92 46
-116 59 -113 73 14 68 7 117 136 45 116 76 175 61 118 -3 -14 -6 -66 -6 -116
0 -87 -1 -91 -25 -102 -51 -23 -26 -32 90 -32 117 0 145 10 85 31 l-30 11 0
159 0 159 25 12 c14 6 25 17 25 25 0 10 -21 13 -90 13 -49 0 -90 -4 -90 -9 0
-22 -104 -271 -110 -264 -4 4 -19 44 -35 88 -15 44 -36 104 -47 133 l-19 52
-100 0 c-81 0 -99 -3 -99 -15z"/>
<path d="M2888 1983 c8 -3 12 -27 12 -69 0 -41 -4 -63 -10 -59 -5 3 -10 1 -10
-4 0 -6 17 -11 38 -11 33 1 35 2 20 14 -14 10 -18 28 -18 75 0 57 -2 61 -22
60 -13 0 -17 -3 -10 -6z"/>
<path d="M2120 1971 c0 -6 7 -11 15 -11 11 0 15 -12 15 -50 0 -38 -4 -50 -15
-50 -8 0 -15 -5 -15 -11 0 -8 22 -10 66 -7 55 3 70 8 85 27 24 29 24 53 1 81
-14 17 -32 23 -85 27 -47 4 -67 2 -67 -6z m126 -19 c18 -12 26 -50 14 -72 -8
-15 -21 -20 -50 -20 l-40 0 0 50 c0 50 0 50 33 50 17 0 37 -4 43 -8z"/>
<path d="M2360 1937 c-15 -8 -26 -23 -28 -39 -5 -46 59 -73 113 -47 15 7 10 8
-17 4 -38 -6 -78 7 -78 25 0 6 25 10 55 10 61 0 73 16 33 44 -27 19 -45 20
-78 3z m78 -24 c2 -9 -10 -13 -43 -13 -42 0 -46 2 -35 16 15 18 71 15 78 -3z"/>
<path d="M2733 1935 c-29 -21 -31 -70 -4 -85 25 -13 72 -13 91 1 11 8 7 9 -17
4 -32 -6 -73 8 -73 25 0 6 25 10 55 10 57 0 63 5 43 33 -19 25 -69 31 -95 12z
m77 -20 c11 -13 6 -15 -34 -15 -43 0 -55 7 -39 23 12 13 60 7 73 -8z"/>
<path d="M3020 1937 c-32 -16 -40 -65 -14 -84 41 -30 114 -3 114 41 0 42 -56
66 -100 43z m70 -22 c18 -21 8 -48 -22 -59 -19 -7 -31 -6 -42 4 -16 13 -22 51
-9 63 12 12 60 7 73 -8z"/>
<path d="M3237 1944 c-4 -5 -24 -8 -45 -7 -20 1 -29 -1 -19 -4 14 -4 17 -16
17 -68 0 -41 -4 -65 -12 -68 -7 -3 5 -5 27 -5 22 0 32 2 23 5 -11 3 -18 14
-18 28 0 21 3 23 34 18 26 -4 39 0 55 16 24 24 26 40 9 64 -15 18 -60 32 -71
21z m53 -29 c27 -33 -12 -71 -58 -54 -21 8 -31 47 -15 62 12 12 60 7 73 -8z"/>
<path d="M3383 1935 c-29 -21 -31 -70 -4 -85 25 -13 72 -13 91 1 11 8 7 9 -17
4 -32 -6 -73 8 -73 25 0 6 25 10 55 10 57 0 63 5 43 33 -19 25 -69 31 -95 12z
m77 -20 c11 -13 6 -15 -34 -15 -43 0 -55 7 -39 23 12 13 60 7 73 -8z"/>
<path d="M3606 1943 c-4 -4 -23 -7 -44 -6 -20 1 -29 -1 -19 -4 12 -3 17 -15
17 -38 0 -22 -6 -38 -17 -44 -14 -8 -6 -10 32 -9 28 0 40 3 28 5 -43 8 -25 83
19 83 10 0 18 5 18 10 0 11 -23 13 -34 3z"/>
<path d="M2519 1921 c10 -10 27 -32 37 -50 23 -39 39 -39 59 0 9 16 25 39 36
50 19 19 19 19 -13 19 -20 0 -28 -3 -21 -8 9 -6 7 -16 -8 -42 l-21 -33 -20 32
c-18 27 -19 34 -7 42 10 6 2 9 -23 9 -37 0 -38 0 -19 -19z"/>
</g>
</svg>
